<?xml version="1.0" encoding="UTF-8"?>
<svg id="Favicon" xmlns="http://www.w3.org/2000/svg" viewBox="0 0 96 96">
  <defs>
    <style>
      .cls-1, .cls-2 {
        stroke-width: 0px;
      }

      .cls-2 {
        fill: #fff;
      }
    </style>
  </defs>
  <rect class="cls-1" width="96" height="96"/>
  <path class="cls-2" d="M27.6235,59.1016c-.0649.373-.0977.6963-.0977.9697,0,1.4512,2.1689,3.3438,6.5049,5.6758,4.3369,2.333,8.7388,3.5,13.2056,3.5,6.0977,0,11.0293-2.0195,14.7949-6.0586,3.7656-4.0371,5.6484-9.3311,5.6484-15.8789,0-6.1553-1.8906-11.2637-5.6729-15.3213-3.7822-4.0586-8.6084-6.0879-14.4771-6.0879-4.271,0-8.3389.9414-12.2026,2.8232s-5.7959,3.7051-5.7959,5.4697c0,.1572.0083.2754.0244.3535.0166.0791.0415.1562.0732.2344l-1.2227.8242-7.3853-14.292,1.0762-.8232c.5547.0791,1.0513.1465,1.4917.2051.4399.0596.856.1094,1.2471.1475.2935,0,2.894-.9502,7.8008-2.8525,4.9077-1.9014,9.7744-2.8525,14.5996-2.8525,9.4238,0,17.0781,3.0791,22.9629,9.2344,5.8857,6.1553,8.8281,14.0371,8.8281,23.6426,0,9.4102-2.8936,17.2432-8.6816,23.4961-5.7871,6.2549-13.0508,9.3809-21.7891,9.3809-7.499,0-15.2593-2.8232-23.2803-8.4688-1.728-1.2549-2.7881-1.8818-3.1792-1.8818-.1958,0-.3916.0684-.5869.2051-.1958.1387-.4893.4033-.8804.7939l-1.125-.8818,7.3364-13.5859,1.0757.8232c-.1299.4316-.2275.834-.2935,1.2061Z"/>
</svg>