<?xml version="1.0" encoding="UTF-8"?>
<svg id="White" xmlns="http://www.w3.org/2000/svg" viewBox="0 0 592 118">
  <defs>
    <style>
      .cls-1 {
        fill: none;
      }

      .cls-1, .cls-2 {
        stroke-width: 0px;
      }

      .cls-2 {
        fill: #fff;
      }
    </style>
  </defs>
  <g>
    <path class="cls-2" d="M21.9551,113.5957c0,.5952.0859,1.0151.2588,1.2612s.5059.4307.999.5537v.8306h-7.7178v-.8306c.4766-.123.7969-.3022.9609-.5386.1641-.2354.2471-.6611.2471-1.2764v-21.8716c0-.6152-.083-1.0405-.2471-1.2769-.1641-.2354-.4844-.415-.9609-.5381v-.8306h7.7178v.8306c-.4932.123-.8262.3076-.999.5537s-.2588.6665-.2588,1.2612v8.644l8.0381-7.875c.3613-.3276.5918-.5894.6904-.7842s.1484-.4155.1484-.6616-.1074-.4771-.3213-.6919c-.2139-.2158-.4932-.3643-.8379-.4463v-.8306h10.3066v.8306c-1.5127,1.0664-2.9014,2.2563-4.167,3.5684-.1484.1436-.2383.2358-.2715.2769l-6.5586,6.3062,8.4326,12.2124c.3945.5742.8545,1.1128,1.3809,1.6147.5264.5029,1.1748,1.0107,1.9482,1.5229v.8306h-9.5918v-.7998c.3447-.0815.6074-.21.7891-.3848.1807-.1738.2715-.4043.2715-.6919,0-.1846-.0498-.374-.1484-.5688s-.3047-.5181-.6162-.9692l-6.2627-8.9824-3.2305,3.0762v6.6753Z"/>
    <path class="cls-2" d="M62.9287,106.4282v-14.6426c0-.6152-.0908-1.0508-.2715-1.3071s-.5176-.4463-1.0107-.5693v-.8306h7.0273v.8306c-.4766.123-.7969.3076-.9609.5537-.165.2461-.2471.6875-.2471,1.3228v21.8101c0,.6152.082,1.041.2471,1.2764.1641.2363.4844.4155.9609.5386v.8306h-7.915v-.8306c.3125-.0815.5586-.21.7402-.3843.1807-.1743.2705-.354.2705-.5386,0-.123-.0283-.251-.0859-.3843s-.1357-.2617-.2344-.3848l-12.624-15.5654v15.4424c0,.5952.0859,1.0151.2588,1.2612s.5049.4307.998.5537v.8306h-7.002v-.8306c.4766-.123.7969-.3022.9609-.5386.1641-.2354.2471-.6611.2471-1.2764v-21.8716c0-.6152-.083-1.0405-.2471-1.2769-.1641-.2354-.4844-.415-.9609-.5381v-.8306h8.4326v.7998c-.3125.123-.543.2568-.6904.3999-.1484.1436-.2217.3184-.2217.5229,0,.103.0244.2104.0732.3228.0498.1133.1562.2725.3213.4771l11.9336,14.8271Z"/>
    <path class="cls-2" d="M84.4238,88.4634c3.7803,0,6.8828,1.3384,9.3076,4.0142,2.4248,2.6768,3.6377,6.0654,3.6377,10.167,0,4.0605-1.2168,7.4341-3.6494,10.1206-2.4336,2.687-5.5322,4.0298-9.2959,4.0298-3.6992,0-6.7607-1.3481-9.1855-4.0449s-3.6367-6.0649-3.6367-10.1055c0-4.0605,1.208-7.439,3.625-10.1357,2.416-2.6968,5.4814-4.0454,9.1973-4.0454ZM77.002,102.6445c0,2.6045.6855,4.7119,2.0586,6.3213,1.3721,1.6104,3.1768,2.415,5.4121,2.415s4.0439-.8154,5.4248-2.4453c1.3809-1.6309,2.0713-3.7271,2.0713-6.291,0-2.604-.6943-4.7168-2.084-6.3369-1.3887-1.6196-3.209-2.4302-5.4609-2.4302-2.2031,0-3.9912.8149-5.3633,2.4458-1.373,1.6299-2.0586,3.7373-2.0586,6.3213Z"/>
    <path class="cls-2" d="M121.6494,89.0786v.8306c-.4932.2051-.834.4258-1.0225.6611-.1895.2363-.2842.5591-.2842.9692,0,.123.0127.2612.0371.4155.0244.1533.0615.3335.1113.5381l4.0928,14.4888,4.1914-14.4888c.0654-.1846.1152-.3584.1484-.5229.0322-.1641.0488-.3076.0488-.4307,0-.3892-.1104-.7178-.333-.9844-.2217-.2661-.5625-.4814-1.0225-.646v-.8306h8.2842v.8306c-.5918.2051-1.0518.5127-1.3809.9229-.3281.4106-.665,1.1689-1.0107,2.2764l-6.0898,19.7183c-.0332.123-.0586.2666-.0742.4307-.0166.1646-.0244.3384-.0244.5229,0,.4512.082.7798.2461.9844.1641.2051.5176.4204,1.0605.646v.8306h-8.3838v-.8306c.5098-.2046.8467-.4102,1.0107-.6152.1641-.2046.2471-.543.2471-1.0151,0-.1846-.0088-.3584-.0244-.5229-.0166-.1641-.042-.3076-.0742-.4307l-4.9561-16.7344-4.7344,16.7344c-.0332.123-.0576.2666-.0742.4307-.0166.1646-.0244.3384-.0244.5229,0,.4722.082.8105.2461,1.0151.165.2051.502.4106,1.0117.6152v.8306h-8.3838v-.8306c.5254-.2046.875-.4155,1.0479-.6304.1729-.2158.2588-.5488.2588-1,0-.2046-.0117-.3999-.0371-.5845-.0244-.1846-.0449-.3076-.0615-.3691l-6.2139-19.7183c-.3447-1.1484-.6777-1.9175-.998-2.3071-.3203-.3892-.7773-.687-1.3691-.8921v-.8306h8.5322v.8306c-.5264.2051-.8672.3999-1.0234.5845s-.2344.4307-.2344.7383c0,.1846.0205.3799.0615.5845.041.2051.1025.4307.1846.6768l4.3896,14.4888,4.1914-14.4888c.0498-.1846.0869-.3535.1113-.5078.0244-.1533.0371-.3022.0371-.4458,0-.4102-.0947-.7329-.2842-.9692-.1885-.2354-.5303-.4658-1.0234-.6919v-.7998h9.5918Z"/>
    <path class="cls-2" d="M150.4863,94.4927c-.4932,0-.8311.0977-1.0117.2925s-.3369.6104-.4678,1.2456h-.6416v-8.4595h.666c.0986.6152.2422,1.0205.4316,1.2148.1885.1953.5303.2925,1.0234.2925h17.9746c.5264,0,.8838-.1025,1.0732-.3076.1885-.2046.3408-.6045.4561-1.1997h.665v8.4595h-.665c-.0986-.5947-.2471-.9995-.4443-1.2153-.1973-.2148-.5586-.3228-1.085-.3228h-6.3125v19.103c0,.6152.082,1.041.2471,1.2764.1641.2363.4932.4155.9863.5386v.8306h-7.7422v-.8306c.4932-.123.8174-.3022.9736-.5386.1562-.2354.2344-.6611.2344-1.2764v-19.103h-6.3613Z"/>
    <path class="cls-2" d="M180.1914,113.5957c0,.5952.0869,1.0151.2588,1.2612.1729.2461.5059.4307.999.5537v.8306h-7.7178v-.8306c.4766-.123.7969-.3022.9619-.5386.1641-.2354.2461-.6611.2461-1.2764v-21.8716c0-.6152-.082-1.0405-.2461-1.2769-.165-.2354-.4854-.415-.9619-.5381v-.8306h7.7178v.8306c-.4932.123-.8262.3076-.999.5537-.1719.2461-.2588.6665-.2588,1.2612v7.3213h12.1807v-7.3213c0-.5947-.0859-1.0151-.2588-1.2612-.1719-.2461-.5137-.4307-1.0225-.5537v-.8306h7.7422v.8306c-.4932.123-.8184.3027-.9746.5381-.1562.2363-.2334.6616-.2334,1.2769v21.8716c0,.6152.0771,1.041.2334,1.2764.1562.2363.4814.4155.9746.5386v.8306h-7.7422v-.8306c.5088-.123.8506-.3076,1.0225-.5537.1729-.2461.2588-.666.2588-1.2612v-9.1978h-12.1807v9.1978Z"/>
    <path class="cls-2" d="M223.3359,89.0786c.542,0,.8916-.0923,1.0479-.2769s.291-.5737.4062-1.1689h.666v8.4595h-.666c-.0986-.6152-.2422-1.0254-.4307-1.2305-.1895-.2046-.5303-.3076-1.0234-.3076h-13.3398v5.4448h8.1865c.5254,0,.8711-.0972,1.0352-.292s.3037-.6001.4189-1.2153l.666-.0308v7.752h-.666c-.0986-.5947-.2422-.9946-.4316-1.1997-.1885-.2046-.5293-.3076-1.0225-.3076h-8.1865v6.1216h13.8818c.5264,0,.8711-.0923,1.0361-.2769.1641-.1846.3115-.5947.4434-1.2305h.6416v8.4902h-.6416c-.0986-.6152-.2461-1.0308-.4434-1.2456-.1973-.2158-.543-.3232-1.0361-.3232h-20.3916v-.8306c.4932-.123.8262-.3076.999-.5537.1719-.2461.2588-.666.2588-1.2612v-21.8716c0-.5947-.0869-1.0151-.2588-1.2612-.1729-.2461-.5059-.4307-.999-.5537v-.8306h19.8496Z"/>
    <path class="cls-2" d="M236.4961,113.5957c0,.6152.082,1.041.2461,1.2764.1641.2363.4932.4155.9863.5386v.8306h-6.9775v-.8306c.4766-.123.7969-.3022.9609-.5386.1641-.2354.2471-.6611.2471-1.2764v-21.8716c0-.6152-.083-1.0405-.2471-1.2769-.1641-.2354-.4844-.415-.9609-.5381v-.8306h9.0244v.8306c-.3291.103-.5762.2568-.7402.4614-.1641.2051-.2461.4512-.2461.7383,0,.1646.0205.3691.0615.6152s.1025.4614.1846.646l5.6465,13.5967,6.2637-13.5967c.082-.1846.1514-.3945.209-.6309.0576-.2354.0869-.4253.0869-.5688,0-.3486-.083-.6255-.2471-.8306-.1641-.2046-.4111-.3486-.7393-.4307l-.0254-.8306h8.8027v.8306c-.4932.123-.8174.3027-.9736.5381-.1562.2363-.2344.6616-.2344,1.2769v21.8716c0,.6152.0781,1.041.2344,1.2764.1562.2363.4805.4155.9736.5386v.8306h-7.4707v-.8306c.4932-.123.8262-.3076.998-.5537.1729-.2461.2598-.666.2598-1.2612v-16.2422l-8.4336,18.334-7.8896-18.334v16.2422Z"/>
    <path class="cls-2" d="M264.1797,112.6421c0-1.1689.333-2.1636.999-2.9839.665-.8198,1.4668-1.2305,2.4033-1.2305.9209,0,1.7061.4106,2.3555,1.2305.6494.8203.9736,1.8149.9736,2.9839,0,1.1895-.3203,2.1792-.9619,2.9683-.6406.7896-1.4297,1.1846-2.3672,1.1846-.9697,0-1.7793-.395-2.4287-1.1846-.6494-.7891-.9736-1.7788-.9736-2.9683Z"/>
    <path class="cls-2" d="M287.7139,114.2109l2.3672-6.7368.7646.3999c-.0166.0415-.0332.103-.0488.1846-.0332.1846-.0498.3076-.0498.3691,0,.6768.8838,1.415,2.6504,2.2148,1.7676.7998,3.5713,1.1997,5.4131,1.1997,1.873,0,3.3613-.3179,4.4629-.9536,1.1006-.6353,1.6514-1.4766,1.6514-2.5225,0-1.4966-1.8574-2.3687-5.5723-2.6147-1.4795-.1025-2.6465-.1948-3.501-.2769-2.5645-.2871-4.4795-1.0659-5.7451-2.3379-1.2666-1.2715-1.8994-3.0557-1.8994-5.3525,0-2.7686.9453-4.9937,2.8359-6.6753,1.8906-1.6812,4.3975-2.5225,7.5205-2.5225,2.1367,0,4.2822.5029,6.4355,1.5073.3613.1646.5752.2461.6416.2461.2129,0,.6367.2104,1.2695.6309s1.1221.6304,1.4668.6304c.0654,0,.1729-.0464.3203-.1382.1484-.0928.2881-.2104.4199-.354l.5664.3076-2.6875,6.7983-.7393-.4922c.0156-.02.0283-.0508.0371-.0923.0078-.041.0117-.1123.0117-.2153,0-.7998-.8379-1.6504-2.5146-2.5532-1.6768-.9023-3.4033-1.3535-5.1777-1.3535-1.6445,0-2.9717.2822-3.9824.8462s-1.5166,1.2871-1.5166,2.1685c0,1.374,1.4551,2.1533,4.3643,2.3379,2.2188.1436,4.0107.3691,5.375.6768,2.3838.5337,4.167,1.4766,5.3506,2.8301s1.7754,3.0967,1.7754,5.2295c0,2.7275-1.0273,4.9526-3.082,6.6753s-4.7256,2.584-8.0137,2.584c-3.1064,0-6.082-.8101-8.9258-2.4302-.542-.3076-.8711-.4614-.9863-.4614-.1641.0205-.2832.0615-.3574.123s-.1357.1846-.1846.3691l-.7158-.2461Z"/>
    <path class="cls-2" d="M335.3213,89.0786v.8306c-.4932.2051-.835.4258-1.0234.6611-.1895.2363-.2832.5591-.2832.9692,0,.123.0117.2612.0371.4155.0244.1533.0615.3335.1104.5381l4.0938,14.4888,4.1914-14.4888c.0654-.1846.1143-.3584.1475-.5229.0332-.1641.0498-.3076.0498-.4307,0-.3892-.1113-.7178-.333-.9844-.2217-.2661-.5635-.4814-1.0234-.646v-.8306h8.2852v.8306c-.5918.2051-1.0527.5127-1.3809.9229-.3291.4106-.666,1.1689-1.0107,2.2764l-6.0908,19.7183c-.0332.123-.0576.2666-.0742.4307-.0166.1646-.0244.3384-.0244.5229,0,.4512.082.7798.2471.9844.1641.2051.5176.4204,1.0596.646v.8306h-8.3828v-.8306c.5088-.2046.8457-.4102,1.0107-.6152.1641-.2046.2461-.543.2461-1.0151,0-.1846-.0078-.3584-.0244-.5229-.0166-.1641-.041-.3076-.0742-.4307l-4.9561-16.7344-4.7344,16.7344c-.0322.123-.0576.2666-.0732.4307-.0166.1646-.0254.3384-.0254.5229,0,.4722.082.8105.2471,1.0151.1641.2051.501.4106,1.0107.6152v.8306h-8.3838v-.8306c.5264-.2046.876-.4155,1.0488-.6304.1719-.2158.2588-.5488.2588-1,0-.2046-.0127-.3999-.0371-.5845s-.0459-.3076-.0615-.3691l-6.2139-19.7183c-.3457-1.1484-.6777-1.9175-.999-2.3071-.3203-.3892-.7764-.687-1.3682-.8921v-.8306h8.5312v.8306c-.5264.2051-.8672.3999-1.0234.5845s-.2344.4307-.2344.7383c0,.1846.0205.3799.0625.5845.04.2051.1025.4307.1846.6768l4.3887,14.4888,4.1924-14.4888c.0488-.1846.0859-.3535.1104-.5078.0254-.1533.0371-.3022.0371-.4458,0-.4102-.0947-.7329-.2832-.9692-.1895-.2354-.5303-.4658-1.0234-.6919v-.7998h9.5918Z"/>
    <path class="cls-2" d="M357.5557,113.5957c0,.5952.0859,1.0151.2588,1.2612s.5059.4307.999.5537v.8306h-7.7178v-.8306c.4766-.123.7969-.3022.9609-.5386.1641-.2354.2471-.6611.2471-1.2764v-21.8716c0-.6152-.083-1.0405-.2471-1.2769-.1641-.2354-.4844-.415-.9609-.5381v-.8306h7.7178v.8306c-.4932.123-.8262.3076-.999.5537s-.2588.6665-.2588,1.2612v21.8716Z"/>
    <path class="cls-2" d="M363.96,94.4927c-.4932,0-.8301.0977-1.0107.2925-.1816.1948-.3369.6104-.4688,1.2456h-.6406v-8.4595h.665c.0986.6152.2432,1.0205.4316,1.2148.1895.1953.5303.2925,1.0234.2925h17.9756c.5254,0,.8828-.1025,1.0723-.3076.1885-.2046.3408-.6045.4561-1.1997h.666v8.4595h-.666c-.0986-.5947-.2461-.9995-.4434-1.2153-.1973-.2148-.5596-.3228-1.085-.3228h-6.3125v19.103c0,.6152.082,1.041.2461,1.2764.1641.2363.4932.4155.9863.5386v.8306h-7.7422v-.8306c.4932-.123.8174-.3022.9746-.5386.1553-.2354.2334-.6611.2334-1.2764v-19.103h-6.3613Z"/>
    <path class="cls-2" d="M406.6855,97.5996l-.543-.3691c.0156-.041.0273-.0771.0371-.1074.0078-.0312.0117-.0874.0117-.1694,0-.7178-.7773-1.4712-2.3301-2.2612-1.5527-.7891-3.1855-1.1841-4.8945-1.1841-2.4004,0-4.3477.8359-5.8438,2.5073s-2.2432,3.8604-2.2432,6.5674c0,2.687.7354,4.835,2.207,6.4443,1.4707,1.6104,3.4307,2.415,5.8799,2.415,1.875,0,3.6738-.4814,5.4004-1.4458,1.7266-.9639,2.5879-1.7637,2.5879-2.3994,0-.041-.0156-.1484-.0488-.3228s-.0664-.354-.0977-.5386l.5918-.3076,3.3281,5.9678-.543.3691c-.1641-.1431-.2871-.2407-.3691-.2925-.082-.0508-.1641-.0767-.2461-.0767-.1816,0-.6758.2876-1.4805.8613-3.3691,2.3994-6.6328,3.5991-9.7891,3.5991-3.6816,0-6.7471-1.3638-9.1963-4.0913-2.4502-2.7271-3.6738-6.1011-3.6738-10.1206,0-4.1631,1.249-7.5874,3.748-10.2744,2.498-2.6865,5.7285-4.0298,9.6904-4.0298,2.0215,0,4.0762.4106,6.1641,1.2305,2.0859.8203,3.2129,1.2305,3.377,1.2305s.3379-.0151.5176-.0464c.1816-.0303.3867-.0767.6172-.1382l.5918.3691-3.4512,6.6138Z"/>
    <path class="cls-2" d="M419.0068,113.5957c0,.5952.0869,1.0151.2588,1.2612.1729.2461.5059.4307.999.5537v.8306h-7.7178v-.8306c.4766-.123.7969-.3022.9619-.5386.1641-.2354.2461-.6611.2461-1.2764v-21.8716c0-.6152-.082-1.0405-.2461-1.2769-.165-.2354-.4854-.415-.9619-.5381v-.8306h7.7178v.8306c-.4932.123-.8262.3076-.999.5537-.1719.2461-.2588.6665-.2588,1.2612v7.3213h12.1807v-7.3213c0-.5947-.0859-1.0151-.2588-1.2612s-.5137-.4307-1.0234-.5537v-.8306h7.7422v.8306c-.4922.123-.8174.3027-.9736.5381-.1562.2363-.2344.6616-.2344,1.2769v21.8716c0,.6152.0781,1.041.2344,1.2764.1562.2363.4814.4155.9736.5386v.8306h-7.7422v-.8306c.5098-.123.8506-.3076,1.0234-.5537s.2588-.666.2588-1.2612v-9.1978h-12.1807v9.1978Z"/>
    <path class="cls-2" d="M455.3633,94.4927c-.4932,0-.8301.0977-1.0107.2925s-.3369.6104-.4688,1.2456h-.6406v-8.4595h.666c.0986.6152.2422,1.0205.4316,1.2148.1885.1953.5293.2925,1.0225.2925h17.9756c.5254,0,.8838-.1025,1.0723-.3076.1895-.2046.3408-.6045.4561-1.1997h.666v8.4595h-.666c-.0986-.5947-.2461-.9995-.4434-1.2153-.1973-.2148-.5596-.3228-1.085-.3228h-6.3125v19.103c0,.6152.082,1.041.2471,1.2764.1641.2363.4932.4155.9863.5386v.8306h-7.7432v-.8306c.4932-.123.8184-.3022.9746-.5386.1562-.2354.2344-.6611.2344-1.2764v-19.103h-6.3623Z"/>
    <path class="cls-2" d="M485.0684,113.5957c0,.5952.0869,1.0151.2588,1.2612.1729.2461.5059.4307.999.5537v.8306h-7.7178v-.8306c.4766-.123.7969-.3022.9619-.5386.1641-.2354.2461-.6611.2461-1.2764v-21.8716c0-.6152-.082-1.0405-.2461-1.2769-.165-.2354-.4854-.415-.9619-.5381v-.8306h7.7178v.8306c-.4932.123-.8262.3076-.999.5537-.1719.2461-.2588.6665-.2588,1.2612v7.3213h12.1807v-7.3213c0-.5947-.0859-1.0151-.2588-1.2612s-.5137-.4307-1.0234-.5537v-.8306h7.7422v.8306c-.4922.123-.8174.3027-.9736.5381-.1562.2363-.2344.6616-.2344,1.2769v21.8716c0,.6152.0781,1.041.2344,1.2764.1562.2363.4814.4155.9736.5386v.8306h-7.7422v-.8306c.5098-.123.8506-.3076,1.0234-.5537s.2588-.666.2588-1.2612v-9.1978h-12.1807v9.1978Z"/>
    <path class="cls-2" d="M528.2129,89.0786c.543,0,.8916-.0923,1.0488-.2769.1553-.1846.291-.5737.4062-1.1689h.666v8.4595h-.666c-.0986-.6152-.2422-1.0254-.4316-1.2305-.1885-.2046-.5303-.3076-1.0234-.3076h-13.3389v5.4448h8.1855c.5264,0,.8711-.0972,1.0361-.292.1641-.1948.3037-.6001.4189-1.2153l.666-.0308v7.752h-.666c-.0986-.5947-.2432-.9946-.4316-1.1997-.1895-.2046-.5303-.3076-1.0234-.3076h-8.1855v6.1216h13.8818c.5254,0,.8711-.0923,1.0352-.2769s.3125-.5947.4443-1.2305h.6406v8.4902h-.6406c-.0986-.6152-.2471-1.0308-.4443-1.2456-.1973-.2158-.542-.3232-1.0352-.3232h-20.3916v-.8306c.4932-.123.8262-.3076.998-.5537.1729-.2461.2598-.666.2598-1.2612v-21.8716c0-.5947-.0869-1.0151-.2598-1.2612-.1719-.2461-.5049-.4307-.998-.5537v-.8306h19.8486Z"/>
    <path class="cls-2" d="M541.373,113.5957c0,.6152.082,1.041.2471,1.2764.1641.2363.4932.4155.9863.5386v.8306h-6.9785v-.8306c.4766-.123.7979-.3022.9619-.5386.1641-.2354.2471-.6611.2471-1.2764v-21.8716c0-.6152-.083-1.0405-.2471-1.2769-.1641-.2354-.4854-.415-.9619-.5381v-.8306h9.0254v.8306c-.3291.103-.5762.2568-.7402.4614-.1641.2051-.2461.4512-.2461.7383,0,.1646.0195.3691.0615.6152.041.2461.1025.4614.1846.646l5.6465,13.5967,6.2627-13.5967c.082-.1846.1523-.3945.21-.6309.0576-.2354.0859-.4253.0859-.5688,0-.3486-.082-.6255-.2461-.8306-.165-.2046-.4111-.3486-.7402-.4307l-.0244-.8306h8.8027v.8306c-.4932.123-.8174.3027-.9736.5381-.1562.2363-.2344.6616-.2344,1.2769v21.8716c0,.6152.0781,1.041.2344,1.2764.1562.2363.4805.4155.9736.5386v.8306h-7.4707v-.8306c.4932-.123.8252-.3076.998-.5537s.2588-.666.2588-1.2612v-16.2422l-8.4326,18.334-7.8906-18.334v16.2422Z"/>
    <path class="cls-2" d="M569.0566,112.6421c0-1.1689.333-2.1636.999-2.9839.666-.8198,1.4668-1.2305,2.4043-1.2305.9199,0,1.7051.4106,2.3545,1.2305.6494.8203.9736,1.8149.9736,2.9839,0,1.1895-.3203,2.1792-.9609,2.9683-.6416.7896-1.4307,1.1846-2.3672,1.1846-.9707,0-1.7803-.395-2.4287-1.1846-.6494-.7891-.9746-1.7788-.9746-2.9683Z"/>
  </g>
  <g>
    <path class="cls-2" d="M.9419,61.3555l5.6245-15.0562,1.6143.8232c-.0332.0791-.0659.1968-.0981.353-.0654.3525-.1147.647-.1465.8818,0,1.5688,2.1436,3.2847,6.4316,5.1465,4.2871,1.8628,8.6973,2.7935,13.2295,2.7935,4.0757,0,7.4175-.813,10.0264-2.4404,2.6084-1.627,3.9131-3.6558,3.9131-6.0874,0-3.9995-4.4019-6.2344-13.2056-6.7046-3.2607-.1562-5.8042-.333-7.6299-.5298-6.3262-.666-11.0288-2.4497-14.1104-5.3521-3.0811-2.9009-4.6216-6.9399-4.6216-12.1152,0-6.2344,2.2329-11.2725,6.7002-15.1152,4.4668-3.8423,10.3687-5.7642,17.7051-5.7642,6.0322,0,12.6675,1.9023,19.9062,5.7051,1.7925.9409,2.8687,1.4116,3.228,1.4116.2275,0,.4722-.0781.7334-.2354.2607-.1562.6519-.4702,1.1738-.9409l1.2227.7056-6.4067,14.939-1.6631-1.0586c0-.1177.0078-.2061.0244-.2646.0161-.0591.0244-.1855.0244-.3823,0-1.8823-1.9976-3.8716-5.9912-5.9697-3.9946-2.0972-8.1763-3.1465-12.5454-3.1465-3.8477,0-6.9448.7261-9.2925,2.1763-2.3477,1.4507-3.5215,3.333-3.5215,5.646,0,3.3726,3.7661,5.3325,11.2979,5.8813,3.9126.3145,7.0264.647,9.3418,1,6.3252.9409,11.1587,3.0195,14.5015,6.2344,3.3418,3.2153,5.0132,7.3911,5.0132,12.5273,0,6.0386-2.4453,11.0376-7.3364,14.9976-4.8906,3.9604-11.1841,5.9399-18.8789,5.9399-7.3364,0-14.3472-1.8818-21.0308-5.646-1.272-.7061-2.0381-1.0586-2.2988-1.0586-.3594,0-.6284.0879-.8071.2646-.1797.1763-.3506.52-.5132,1.0293l-1.6143-.5884Z"/>
    <path class="cls-2" d="M79.5874,66.2959v-1.5879c.9785-.3916,1.6387-.7842,1.981-1.1763.3423-.3916.5137-1.0386.5137-1.9409,0-.3135-.0244-.647-.0732-1-.0493-.3525-.0903-.6265-.1226-.8232l-15.7485-49.1099c-.6528-2.0776-1.3047-3.499-1.9565-4.2637-.6523-.7646-1.5981-1.3618-2.8369-1.7939v-1.5293h18.439v1.5293c-.978.3926-1.647.7847-2.0054,1.1763-.3589.3926-.5381.8823-.5381,1.4702,0,.1968.0405.4614.1226.7939.0811.334.2202.7939.4155,1.3823l11.1025,37.8174,11.0044-37.8174c.0649-.1958.1138-.4604.147-.7939.0317-.3325.0488-.6562.0488-.9707,0-.8618-.1553-1.4795-.4648-1.8525-.3101-.3721-.9863-.7734-2.0298-1.2056v-1.5293h19.564v1.5293c-.9785.3926-1.647.7847-2.0054,1.1763-.3594.3926-.5381.8823-.5381,1.4702,0,.1968.0405.4614.1221.7939.0811.334.2202.7939.416,1.3823l10.9067,36.8765,10.8086-36.8765c.0654-.1958.1143-.4604.147-.7939.0322-.3325.0488-.6562.0488-.9707,0-.8232-.1465-1.4204-.4399-1.7935-.2935-.3726-.9785-.7939-2.0542-1.2646v-1.5293h17.5093v1.5293c-1.2715.4707-2.2178,1.0879-2.8369,1.8525-.6196.7646-1.2393,2.167-1.8584,4.2051l-15.4062,49.1099c-.0659.2354-.1147.5098-.147.8232-.0327.3145-.0488.647-.0488,1,0,.9023.1631,1.5493.4893,1.9409.3257.3921.9941.7847,2.0054,1.1763v1.5879h-17.3628v-1.5879c1.0757-.3916,1.7852-.7939,2.1274-1.2056.3423-.4121.5137-1.0488.5137-1.9116,0-.2354-.0244-.4897-.0732-.7646-.0493-.2739-.1226-.6074-.2202-1l-12.1294-41.6987-12.2275,41.6401c-.0654.2354-.1147.5098-.1465.8232-.0332.3145-.0488.647-.0488,1,0,.8628.1626,1.4907.4888,1.8818.3257.3926,1.0273.8042,2.103,1.2354v1.5879h-17.7051Z"/>
    <path class="cls-2" d="M176.7212,61.2378c0,1.2158.1543,2.0293.4644,2.4409.3096.4116.9541.7744,1.9321,1.0879v1.5293h-16.4336v-1.5879c1.0103-.2739,1.6631-.6367,1.9565-1.0884.2935-.4502.4399-1.2441.4399-2.3818V8.1289c0-1.2148-.1548-2.0483-.4644-2.4995-.3105-.4502-.9541-.7939-1.9321-1.0293v-1.5293h16.4336v1.5293c-.9463.2354-1.582.5791-1.9077,1.0293-.3262.4512-.4888,1.2847-.4888,2.4995v53.1089Z"/>
    <path class="cls-2" d="M196.1382,14.2456c-1.0112,0-1.6875.1865-2.0298.5586-.3428.373-.6284,1.147-.856,2.3232h-1.3208V.0713h1.272c.2275,1.1763.5376,1.9702.9292,2.3818.3911.4121,1.0591.6177,2.0054.6177h44.0669c1.0103,0,1.6875-.1958,2.0298-.5879.3423-.3916.6274-1.1958.856-2.4116h1.3203v17.1738h-1.3203c-.1958-1.1763-.4893-1.9702-.8804-2.3818-.3916-.4121-1.0601-.6177-2.0054-.6177h-16.3354v46.9922c0,1.2158.1543,2.0293.4644,2.4409.3096.4116.9536.7554,1.9321,1.0293v1.5879h-16.2871v-1.5879c.9785-.3135,1.6221-.6958,1.9321-1.147.3096-.4502.4966-1.2441.5625-2.3818V14.2456h-16.3354Z"/>
    <path class="cls-1" d="M305.1074,44.4761l1.0762-.8237,7.3359,13.5864-1.125.8818c-.3906-.3911-.6836-.6558-.8799-.7939-.1953-.1367-.3916-.2056-.5869-.2056-.3906,0-1.4512.6274-3.1797,1.8818-8.0205,5.646-15.7808,8.4692-23.2798,8.4692-8.7388,0-16.002-3.1265-21.7891-9.3809-5.7881-6.2534-8.6816-14.0859-8.6816-23.4961,0-9.606,2.9424-17.4873,8.8281-23.6431,5.8853-6.1553,13.5396-9.2339,22.9629-9.2339,4.8252,0,9.6919.9512,14.6001,2.8525,4.9062,1.9023,7.5068,2.8525,7.8008,2.8525.3906-.0386.8066-.0884,1.2461-.1475.4414-.0586.9375-.1265,1.4922-.2056l1.0762.8232-7.3848,14.292-1.2227-.8237c.0312-.0781.0566-.1558.0723-.2349.0166-.0781.0254-.1958.0254-.353,0-1.7646-1.9326-3.5879-5.7969-5.4697-3.8633-1.8818-7.9312-2.8232-12.2021-2.8232-5.8691,0-10.6948,2.0293-14.4771,6.0874-3.7827,4.0581-5.6733,9.166-5.6733,15.3213,0,6.5483,1.8828,11.8418,5.6489,15.8794,3.7661,4.0391,8.6973,6.0581,14.7949,6.0581,4.4668,0,8.8687-1.1665,13.2056-3.4995,4.3359-2.3325,6.5049-4.2246,6.5049-5.6758,0-.2734-.0322-.5972-.0977-.9702-.0654-.3721-.1631-.7739-.2939-1.2056Z"/>
    <path class="cls-2" d="M340.0781,61.2378c0,1.1763.1543,1.9805.4639,2.4116.3096.4316.9854.7847,2.0303,1.0586v1.5879h-16.5312v-1.5879c1.043-.3135,1.7188-.6958,2.0293-1.147.3096-.4502.4648-1.2251.4648-2.3232V8.1289c0-1.1763-.1641-1.9897-.4893-2.4409-.3262-.4502-.9951-.813-2.0049-1.0879v-1.5293h16.5312v1.5293c-.9785.2749-1.6387.6377-1.9805,1.0879-.3438.4512-.5137,1.2646-.5137,2.4409v19.5264h30.3721V8.1289c0-1.2544-.1543-2.0879-.4648-2.4995s-.9707-.7544-1.9805-1.0293v-1.5293h16.4336v1.5293c-.9473.2354-1.582.5791-1.9082,1.0293-.3262.4512-.4883,1.2847-.4883,2.4995v53.1089c0,1.2158.1543,2.0293.4648,2.4409.3086.4116.9531.7744,1.9316,1.0879v1.5293h-16.4336v-1.5879c.9785-.2354,1.6289-.5781,1.957-1.0293.3242-.4502.4883-1.2646.4883-2.4409v-21.8198h-30.3721v21.8198Z"/>
    <path class="cls-2" d="M450.1719,54.9448c1.043,0,1.7363-.1855,2.0791-.5586.3418-.3726.627-1.147.8555-2.3232h1.2715v17.2324h-1.2715c-.2285-1.1763-.5303-1.9702-.9043-2.3818-.376-.4116-1.0518-.6177-2.0303-.6177h-47.7842v-1.5879c1.043-.3135,1.7197-.6958,2.0303-1.147.3086-.4502.4639-1.2251.4639-2.3232V8.1289c0-1.1763-.1631-1.9897-.4893-2.4409-.3262-.4502-.9941-.813-2.0049-1.0879v-1.5293h47.1973c1.0107,0,1.6875-.1958,2.0303-.5879.3418-.3916.627-1.1958.8555-2.4116h1.3203v17.1738h-1.3203c-.1953-1.1367-.4727-1.9014-.8311-2.2939-.3594-.3911-.9141-.5879-1.6631-.5879h-33.5518v13.8799h21.1289c1.043,0,1.7275-.1763,2.0537-.5293s.6191-1.1367.8809-2.3525h1.2715v15.9976h-1.2715c-.1963-1.1367-.4814-1.9014-.8564-2.2939-.375-.3916-1.0684-.5879-2.0781-.5879h-21.1289v16.4678h33.7471Z"/>
    <path class="cls-2" d="M470.7139,66.2959v-1.5879c1.0107-.2354,1.6787-.5884,2.0049-1.0586.3262-.4707.4893-1.2739.4893-2.4116V8.1289c0-1.0972-.1553-1.8818-.4639-2.3525-.3105-.4707-.9873-.8618-2.0303-1.1763v-1.5293h33.0625c6.8477,0,12.1621,1.6084,15.9443,4.8228,3.7822,3.2153,5.6738,7.7046,5.6738,13.4683,0,4.7446-1.166,8.6558-3.4971,11.7334-2.332,3.0786-5.9268,5.4019-10.7842,6.9697l11.1016,18.644c.6523,1.1377,1.3945,2.1274,2.2256,2.9702.832.8433,2.1602,1.8525,3.9863,3.0288v1.5879h-19.3193v-1.5879c.7168-.1177,1.2637-.353,1.6387-.7061.374-.3525.5625-.7837.5625-1.2939,0-.1172-.1309-.5088-.3916-1.1763-.2607-.666-.5381-1.2544-.8311-1.7642l-11.0049-19.3496h-14.3301v20.8198c0,1.1763.1543,1.9805.4648,2.4116.3096.4316.9854.7847,2.0293,1.0586v1.5879h-16.5312ZM500.5977,13.8926h-15.8467v17.3501h16.2373c4.7939,0,8.209-.6953,10.2471-2.0879,2.0371-1.3911,3.0566-3.6758,3.0566-6.8516,0-3.0586-.9951-5.2246-2.9834-6.499-1.9893-1.2739-5.5596-1.9116-10.7109-1.9116Z"/>
    <path class="cls-2" d="M538.6484,61.3555l5.625-15.0562,1.6133.8232c-.0322.0791-.0654.1968-.0977.353-.0654.3525-.1143.647-.1465.8818,0,1.5688,2.1436,3.2847,6.4316,5.1465,4.2871,1.8628,8.6973,2.7935,13.2295,2.7935,4.0762,0,7.418-.813,10.0264-2.4404,2.6084-1.627,3.9131-3.6558,3.9131-6.0874,0-3.9995-4.4023-6.2344-13.2061-6.7046-3.2607-.1562-5.8037-.333-7.6289-.5298-6.3262-.666-11.0293-2.4497-14.1104-5.3521-3.082-2.9009-4.6221-6.9399-4.6221-12.1152,0-6.2344,2.2324-11.2725,6.7002-15.1152,4.4668-3.8423,10.3691-5.7642,17.7051-5.7642,6.0322,0,12.668,1.9023,19.9062,5.7051,1.793.9409,2.8691,1.4116,3.2275,1.4116.2285,0,.4727-.0781.7344-.2354.2598-.1562.6514-.4702,1.1738-.9409l1.2227.7056-6.4072,14.939-1.6631-1.0586c0-.1177.0078-.2061.0244-.2646.0156-.0591.0244-.1855.0244-.3823,0-1.8823-1.998-3.8716-5.9912-5.9697-3.9941-2.0972-8.1768-3.1465-12.5449-3.1465-3.8477,0-6.9453.7261-9.293,2.1763-2.3477,1.4507-3.5215,3.333-3.5215,5.646,0,3.3726,3.7656,5.3325,11.2979,5.8813,3.9131.3145,7.0264.647,9.3418,1,6.3252.9409,11.1592,3.0195,14.501,6.2344,3.3428,3.2153,5.0137,7.3911,5.0137,12.5273,0,6.0386-2.4453,11.0376-7.3359,14.9976-4.8916,3.9604-11.1846,5.9399-18.8789,5.9399-7.3369,0-14.3477-1.8818-21.0312-5.646-1.2715-.7061-2.0381-1.0586-2.2988-1.0586-.3594,0-.6279.0879-.8066.2646-.1797.1763-.3516.52-.5137,1.0293l-1.6143-.5884Z"/>
  </g>
  <path class="cls-2" d="M263.1206,45.4692c-.0649.373-.0977.6968-.0977.9702,0,1.4512,2.1689,3.3433,6.5049,5.6758,4.3369,2.333,8.7388,3.4995,13.2056,3.4995,6.0977,0,11.0288-2.019,14.7949-6.0581,3.7666-4.0376,5.6494-9.3311,5.6494-15.8794,0-6.1553-1.8906-11.2632-5.6738-15.3213-3.7822-4.0581-8.6079-6.0874-14.4771-6.0874-4.271,0-8.3389.9414-12.2026,2.8232s-5.7959,3.7051-5.7959,5.4697c0,.1572.0083.2749.0244.353.0166.0791.0415.1567.0732.2349l-1.2227.8237-7.3853-14.292,1.0762-.8232c.5547.0791,1.0513.147,1.4917.2056.4399.0591.856.1089,1.2471.1475.2935,0,2.894-.9502,7.8008-2.8525,4.9077-1.9014,9.7744-2.8525,14.5996-2.8525,9.4233,0,17.0771,3.0786,22.9629,9.2339,5.8857,6.1558,8.8281,14.0371,8.8281,23.6431,0,9.4102-2.8936,17.2427-8.6816,23.4961-5.7871,6.2544-13.0503,9.3809-21.7891,9.3809-7.499,0-15.2593-2.8232-23.2803-8.4692-1.728-1.2544-2.7881-1.8818-3.1792-1.8818-.1958,0-.3916.0688-.5869.2056-.1958.1382-.4893.4028-.8804.7939l-1.125-.8818,7.3364-13.5864,1.0757.8237c-.1299.4316-.2275.8335-.2935,1.2056Z"/>
</svg>